<svg xmlns="http://www.w3.org/2000/svg" width="117.177" height="30" viewBox="0 0 117.177 55.788"><g transform="translate(280 164.034)"><g transform="translate(-280 -164.034)"><path d="M230.282,31.613c.428-.392.785-.716,1.138-1.047q7.4-6.95,14.785-13.919a5.211,5.211,0,0,1,2.7-1.569,3.2,3.2,0,0,1,2.428.5c2.791,1.934,2.827,5.053.687,7-3.605,3.276-7.146,6.622-10.728,9.924-.347.32-.347.485-.031.834q6.238,6.887,12.438,13.81a4.049,4.049,0,0,1,.477,5.363,4.664,4.664,0,0,1-4.859,1.942,3.688,3.688,0,0,1-1.962-1.149q-6.524-6.895-13.029-13.8c-.347-.369-.536-.349-.881-.033-.967.879-1.962,1.73-2.96,2.574a.688.688,0,0,0-.222.606c0,2.483.012,4.969,0,7.454a4.148,4.148,0,0,1-2.5,4.045,4.439,4.439,0,0,1-6.365-4.178c.049-9.808.018-19.616.018-29.424V4.559A4.241,4.241,0,0,1,223.165.865a4.391,4.391,0,0,1,4.776-.359,4.106,4.106,0,0,1,2.328,3.953V31.613Z" transform="translate(-177.97 0.034)" fill="#fbb11b"/><path d="M69.784,118.657a14.517,14.517,0,0,0-1.063-5.047,8.515,8.515,0,0,0-3.176-3.868,9.313,9.313,0,0,0-5.169-1.342,10.328,10.328,0,0,0-5.822,1.587,9.988,9.988,0,0,0-3.662,4.478,15.13,15.13,0,0,0-1.1,4.192Z" transform="translate(-40.023 -87.13)" fill="none"/><path d="M36.839,104.585a3.16,3.16,0,0,0-2.075-.936,5.221,5.221,0,0,0-3.013.855,17.347,17.347,0,0,1-5.006,1.83,24.374,24.374,0,0,1-4.763.53q-6.1,0-9.241-3.3a12.24,12.24,0,0,1-3-7.368H34.355a4.7,4.7,0,0,0,2.891-.773,2.635,2.635,0,0,0,1.018-2.238A25.765,25.765,0,0,0,37,84.841a17.549,17.549,0,0,0-3.654-6.308,16.05,16.05,0,0,0-5.781-3.99,20.079,20.079,0,0,0-7.613-1.373,19.986,19.986,0,0,0-10.3,2.646A18.857,18.857,0,0,0,2.572,83.1,21.947,21.947,0,0,0,0,93.929a21.791,21.791,0,0,0,2.646,10.985,17.931,17.931,0,0,0,7.531,7.16A25.06,25.06,0,0,0,21.819,114.6a30.67,30.67,0,0,0,6.879-.857,21.121,21.121,0,0,0,6.554-2.646,5.316,5.316,0,0,0,2.075-2.117,4.051,4.051,0,0,0,.449-2.4A3.531,3.531,0,0,0,36.839,104.585ZM14.531,81.668a10.3,10.3,0,0,1,5.822-1.587,9.34,9.34,0,0,1,5.169,1.342A8.48,8.48,0,0,1,28.7,85.3a14.517,14.517,0,0,1,1.063,5.047H9.767a15.13,15.13,0,0,1,1.1-4.192A10,10,0,0,1,14.531,81.668Z" transform="translate(0 -58.81)" fill="#fbb11b"/><path d="M493.015,67.94h-1.626a.995.995,0,0,0-.993,1.075l.812,10.324a1,1,0,0,0,1.987,0l.812-10.324a1,1,0,0,0-.993-1.075Z" transform="translate(-394.198 -54.606)" fill="#fbb11b"/><path d="M462.363,72.837a1,1,0,0,0-1.308-.671l-1.528.557a1,1,0,0,0-.565,1.35l4.292,9.416a1,1,0,0,0,1.867-.679Z" transform="translate(-368.86 -57.954)" fill="#fbb11b"/><path d="M434.778,87.405a.995.995,0,0,0-1.452-.184l-1.246,1.044a1,1,0,0,0-.071,1.463l7.258,7.385a1,1,0,0,0,1.52-1.277Z" transform="translate(-347.038 -69.917)" fill="#fbb11b"/><path d="M423.02,116.794l-8.531-5.865a1,1,0,0,0-1.428.322l-.812,1.408a1,1,0,0,0,.432,1.4l9.345,4.459a1,1,0,0,0,.993-1.722Z" transform="translate(-331.275 -89.021)" fill="#fbb11b"/><path d="M414,143.173l-10.024-2.593a1,1,0,0,0-1.232.785l-.281,1.6a.995.995,0,0,0,.885,1.165l10.306.993a1,1,0,0,0,.345-1.962Z" transform="translate(-323.506 -112.971)" fill="#fbb11b"/><path d="M514.449,72.734l-1.526-.557a1,1,0,0,0-1.3.671l-2.77,9.981a1,1,0,0,0,1.867.679l4.294-9.416a.994.994,0,0,0-.563-1.357Z" transform="translate(-409.005 -57.964)" fill="#fbb11b"/><path d="M529.807,88.264l-1.244-1.044a.995.995,0,0,0-1.452.184L521.1,95.84a1,1,0,0,0,1.522,1.277l7.258-7.385a1,1,0,0,0-.073-1.467Z" transform="translate(-418.732 -69.917)" fill="#fbb11b"/><path d="M531.339,118.517l9.343-4.459a1,1,0,0,0,.435-1.4l-.814-1.408a.995.995,0,0,0-1.426-.322l-8.533,5.865a1,1,0,0,0,.995,1.722Z" transform="translate(-425.972 -89.022)" fill="#fbb11b"/><path d="M546.761,143l-.282-1.6a1,1,0,0,0-1.232-.785l-10.022,2.593a1,1,0,0,0,.345,1.962l10.3-.993a1,1,0,0,0,.887-1.177Z" transform="translate(-429.601 -113.001)" fill="#fbb11b"/><path d="M439.739,173.7h0a3.623,3.623,0,0,0-7.244.02,3.77,3.77,0,0,0,.024.392,11.917,11.917,0,0,1-23.818,0,3.305,3.305,0,0,0,.024-.392,3.623,3.623,0,0,0-7.244-.02h0v.016h0a19.131,19.131,0,0,0,38.251,0v-.027Z" transform="translate(-322.726 -136.78)" fill="#fbb11b"/></g></g></svg>