<svg id="Layer_1" data-name="Layer 1" xmlns="http://www.w3.org/2000/svg" viewBox="0 0 532.3 201.24"><defs><style>.cls-1{fill:#1e1b63;}</style></defs><path class="cls-1" d="M100.64,112,13.26,61.84V162.58l17.34,10,.15-40.95,35.39,20.56.15-20.08L30.71,111.36l0-20,70,40.38-.15,81,17.35-10,.15-40.37L170.86,132l.15,40.21,16.86-9.58V61.89Zm70.22-.23-52.73,30.39,0-20.42,52.78-30Z" transform="translate(-13.26 -11.52)"/><polygon class="cls-1" points="17.41 40.3 87.45 0 157.39 40.3 140.31 50.32 87.31 19.58 34.67 50.25 17.41 40.3"/><path class="cls-1" d="M259.45,69.59H239.23v10.3h19.84V91.63H239.23v19.61H227V57.84h32.42Z" transform="translate(-13.26 -11.52)"/><path class="cls-1" d="M276.87,67.72a6.8,6.8,0,1,1,2-4.84A6.58,6.58,0,0,1,276.87,67.72Zm-10.56,43.52V73.1h11.44v38.14Z" transform="translate(-13.26 -11.52)"/><path class="cls-1" d="M308.49,72a13.61,13.61,0,0,1,10.18,4.2q4.08,4.18,4.08,11.59v23.42H311.31V89.5a6.79,6.79,0,0,0-1.87-5.15,6.6,6.6,0,0,0-4.76-1.79,6.86,6.86,0,0,0-5.19,2q-1.9,2-1.91,5.88v20.82H286.14V73.1h11.44v3.58Q301,72,308.49,72Z" transform="translate(-13.26 -11.52)"/><path class="cls-1" d="M358.3,73.1h11.44v38.14H358.3v-3.59c-2.7,3.11-6.48,4.66-11.37,4.66A16.86,16.86,0,0,1,334,106.47a20.41,20.41,0,0,1-5.34-14.3A20.39,20.39,0,0,1,334,77.87,16.86,16.86,0,0,1,346.93,72c4.89,0,8.67,1.55,11.37,4.65ZM342.66,99a9.8,9.8,0,0,0,13.12,0,9.17,9.17,0,0,0,2.52-6.79,9.17,9.17,0,0,0-2.52-6.79,9.8,9.8,0,0,0-13.12,0,9.17,9.17,0,0,0-2.52,6.79A9.17,9.17,0,0,0,342.66,99Z" transform="translate(-13.26 -11.52)"/><path class="cls-1" d="M389.57,79.89a9.39,9.39,0,0,1,4.31-5.61A13.57,13.57,0,0,1,401,72.34v13a11.51,11.51,0,0,0-7.82,1.42q-3.62,2.09-3.62,7.28v17.24H378.13V73.1h11.44Z" transform="translate(-13.26 -11.52)"/><path class="cls-1" d="M443,111.24H430L417.79,94.38v16.86H406.35V57.84h11.44v32l11.44-16.7h13.35L428.7,92.17Z" transform="translate(-13.26 -11.52)"/><path class="cls-1" d="M455.09,96.75c1.32,3.56,4.38,5.34,9.15,5.34a9.48,9.48,0,0,0,7.33-2.9l9.15,5.26q-5.64,7.86-16.63,7.86-9.6,0-15.37-5.72A19.49,19.49,0,0,1,443,92.17a19.65,19.65,0,0,1,5.69-14.38Q454.32,72,463.25,72a18.4,18.4,0,0,1,13.85,5.76,20,20,0,0,1,5.53,14.38,22.22,22.22,0,0,1-.46,4.58Zm-.23-8.55h16.4q-1.68-6-8.08-6Q456.54,82.18,454.86,88.2Z" transform="translate(-13.26 -11.52)"/><path class="cls-1" d="M499.68,67.72a6.82,6.82,0,1,1,2-4.84A6.62,6.62,0,0,1,499.68,67.72Zm-10.57,43.52V73.1h11.44v38.14Z" transform="translate(-13.26 -11.52)"/><path class="cls-1" d="M531.29,72a13.61,13.61,0,0,1,10.18,4.2q4.08,4.18,4.08,11.59v23.42H534.11V89.5a6.79,6.79,0,0,0-1.87-5.15,6.6,6.6,0,0,0-4.76-1.79,6.86,6.86,0,0,0-5.19,2q-1.9,2-1.91,5.88v20.82H508.94V73.1h11.44v3.58Q523.81,72,531.29,72Z" transform="translate(-13.26 -11.52)"/><path class="cls-1" d="M254.47,169.4l-3.89-10.18H230.5l-3.89,10.18H223.4L239,129.35h3.21l15.5,40.05Zm-22.83-13h17.85l-8.93-23.29Z" transform="translate(-13.26 -11.52)"/><path class="cls-1" d="M276,140.17a10.73,10.73,0,0,1,8.1,3.12,11.48,11.48,0,0,1,3,8.32V169.4h-2.92V151.61a8.89,8.89,0,0,0-2.2-6.35,8.12,8.12,0,0,0-6.21-2.35,9.55,9.55,0,0,0-7.2,2.92q-2.81,2.92-2.81,8.47v15.1h-2.86V140.8h2.86v5.43Q268.88,140.17,276,140.17Z" transform="translate(-13.26 -11.52)"/><path class="cls-1" d="M320.37,140.8h2.92v28.6h-2.92v-6.46a13.47,13.47,0,0,1-5,5.2,14,14,0,0,1-7.26,1.89,14.93,14.93,0,0,1,0-29.86,14.08,14.08,0,0,1,7.26,1.88,13.5,13.5,0,0,1,5,5.21Zm-20.68,22.94a12.2,12.2,0,0,0,17.19,0,12.44,12.44,0,0,0,0-17.28,12.18,12.18,0,0,0-17.19,0,12.36,12.36,0,0,0,0,17.28Z" transform="translate(-13.26 -11.52)"/><path class="cls-1" d="M332.1,169.4V127.64H335V169.4Z" transform="translate(-13.26 -11.52)"/><path class="cls-1" d="M364.7,140.8h3.09L355.44,172a15.62,15.62,0,0,1-4.7,6.67,9.14,9.14,0,0,1-6.63,2.14v-2.69a6.7,6.7,0,0,0,4.95-1.57,12.77,12.77,0,0,0,3.57-5.12l.63-1.54L340.1,140.8h3.09l11.56,25.45Z" transform="translate(-13.26 -11.52)"/><path class="cls-1" d="M387.59,143.6h-8.53v18.59a5.51,5.51,0,0,0,.92,3.55,3.89,3.89,0,0,0,2.8,1.23,29.41,29.41,0,0,0,4.81-.14v2.57q-5.79.85-8.61-.8c-1.89-1.11-2.84-3.24-2.84-6.41V143.6h-6.29v-2.8h6.29v-7.15l2.92-.86v8h8.53Z" transform="translate(-13.26 -11.52)"/><path class="cls-1" d="M397.48,133.22a2.29,2.29,0,0,1-3.2,0,2.18,2.18,0,0,1-.69-1.63,2.12,2.12,0,0,1,.69-1.58,2.27,2.27,0,0,1,3.2,0,2.12,2.12,0,0,1,.69,1.58A2.18,2.18,0,0,1,397.48,133.22Zm-3,36.18V140.8h2.86v28.6Z" transform="translate(-13.26 -11.52)"/><path class="cls-1" d="M419.22,170a14.93,14.93,0,1,1,7.55-27.89,11.81,11.81,0,0,1,4.92,5.35l-2.34,1.37a9.66,9.66,0,0,0-4-4.35,12,12,0,0,0-6.15-1.6,11.72,11.72,0,0,0-8.64,3.52,12.51,12.51,0,0,0,0,17.34,11.71,11.71,0,0,0,8.64,3.51,11.85,11.85,0,0,0,6.15-1.6,10.79,10.79,0,0,0,4.15-4.35l2.4,1.43a12.86,12.86,0,0,1-5.12,5.3A14.9,14.9,0,0,1,419.22,170Z" transform="translate(-13.26 -11.52)"/><path class="cls-1" d="M439.87,148.29a3.79,3.79,0,0,0,1.78,3.32,12.92,12.92,0,0,0,4.34,1.8q2.58.6,5.12,1.35a10,10,0,0,1,4.32,2.48,6.28,6.28,0,0,1,1.78,4.67,7.19,7.19,0,0,1-2.83,5.83A11.41,11.41,0,0,1,447,170a12.92,12.92,0,0,1-7-1.75,9.1,9.1,0,0,1-3.92-4.6l2.46-1.43a6.79,6.79,0,0,0,3,3.69,10.17,10.17,0,0,0,5.41,1.34,9.26,9.26,0,0,0,5.29-1.4,4.51,4.51,0,0,0,2.09-4,4,4,0,0,0-1.78-3.38,12.2,12.2,0,0,0-4.34-1.86q-2.58-.6-5.12-1.34a10.28,10.28,0,0,1-4.32-2.46,6.06,6.06,0,0,1-1.78-4.58,7.36,7.36,0,0,1,2.72-5.78,10.36,10.36,0,0,1,7-2.34,11.3,11.3,0,0,1,6,1.54,9.33,9.33,0,0,1,3.74,4.18l-2.4,1.37A6.31,6.31,0,0,0,451.2,144a9.06,9.06,0,0,0-4.46-1.12,8,8,0,0,0-4.89,1.46A4.62,4.62,0,0,0,439.87,148.29Z" transform="translate(-13.26 -11.52)"/></svg>