<svg width="240" height="44" viewBox="0 0 240 44" fill="none" xmlns="http://www.w3.org/2000/svg">
<path d="M27.8135 18.0761C27.8135 20.1903 27.3282 22.1312 26.3578 23.8988C25.3874 25.6317 23.897 27.0354 21.8869 28.1098C19.8767 29.1842 17.3812 29.7214 14.4006 29.7214H8.88991V42.8223H0V6.3269H14.4006C17.3119 6.3269 19.7727 6.82945 21.7829 7.83455C23.7931 8.83965 25.3007 10.226 26.3058 11.9936C27.3109 13.7612 27.8135 15.7887 27.8135 18.0761ZM13.7248 22.6511C15.423 22.6511 16.6881 22.2525 17.5199 21.4553C18.3517 20.6582 18.7676 19.5318 18.7676 18.0761C18.7676 16.6205 18.3517 15.4941 17.5199 14.6969C16.6881 13.8998 15.423 13.5012 13.7248 13.5012H8.88991V22.6511H13.7248Z" fill="#373737"/>
<path d="M59.7872 27.8498C59.7872 28.6816 59.7352 29.5481 59.6312 30.4492H39.5119C39.6506 32.2515 40.2224 33.6378 41.2275 34.6083C42.2673 35.544 43.5323 36.0119 45.0226 36.0119C47.2408 36.0119 48.7831 35.0761 49.6495 33.2046H59.1113C58.6261 35.1108 57.7423 36.8264 56.4599 38.3514C55.2122 39.8763 53.6353 41.0721 51.7291 41.9385C49.8228 42.805 47.6913 43.2382 45.3346 43.2382C42.4926 43.2382 39.9625 42.6317 37.7443 41.4187C35.5262 40.2056 33.7933 38.4727 32.5456 36.2199C31.2979 33.9671 30.674 31.333 30.674 28.3177C30.674 25.3024 31.2805 22.6684 32.4936 20.4156C33.7413 18.1628 35.4742 16.4299 37.6924 15.2168C39.9105 14.0038 42.4579 13.3972 45.3346 13.3972C48.1419 13.3972 50.6373 13.9864 52.8208 15.1648C55.0043 16.3432 56.7026 18.0242 57.9156 20.2076C59.1633 22.3911 59.7872 24.9385 59.7872 27.8498ZM50.6893 25.5104C50.6893 23.9854 50.1694 22.7724 49.1297 21.8712C48.0899 20.9701 46.7902 20.5196 45.2306 20.5196C43.7403 20.5196 42.4752 20.9528 41.4355 21.8193C40.4304 22.6857 39.8065 23.9161 39.5639 25.5104H50.6893Z" fill="#373737"/>
<path d="M206.477 13.5011C209.873 13.5011 212.577 14.6102 214.587 16.8283C216.632 19.0118 217.654 22.0271 217.654 25.8742V42.8222H208.816V27.0699C208.816 25.129 208.314 23.6214 207.309 22.547C206.304 21.4725 204.952 20.9353 203.254 20.9353C201.555 20.9353 200.204 21.4725 199.199 22.547C198.193 23.6214 197.691 25.129 197.691 27.0699V42.8222H188.801V13.813H197.691V17.6601C198.592 16.3777 199.805 15.3726 201.33 14.6448C202.855 13.8823 204.571 13.5011 206.477 13.5011Z" fill="#373737"/>
<path d="M240 35.284V42.8222H235.477C232.254 42.8222 229.741 42.0424 227.939 40.4827C226.137 38.8885 225.236 36.3064 225.236 32.7366V21.1953H221.7V13.813H225.236V6.74268H234.125V13.813H239.948V21.1953H234.125V32.8405C234.125 33.707 234.333 34.3309 234.749 34.7121C235.165 35.0933 235.858 35.284 236.829 35.284H240Z" fill="#373737"/>
<path d="M86.4059 2.25381C88.1408 -0.751266 92.4783 -0.751271 94.2133 2.2538L114.317 37.0751C116.052 40.0802 113.884 43.8365 110.414 43.8365H70.2055C66.7355 43.8365 64.5668 40.0802 66.3018 37.0751L86.4059 2.25381Z" fill="#1DE9B6"/>
<path d="M114.804 2.25381C116.539 -0.751266 120.876 -0.751271 122.611 2.2538L142.715 37.0751C144.45 40.0802 142.282 43.8365 138.812 43.8365H98.6035C95.1335 43.8365 92.9648 40.0802 94.6997 37.0751L114.804 2.25381Z" fill="#1DE9B6"/>
<path opacity="0.6" d="M98.6035 43.8365H110.414C113.884 43.8365 116.052 40.0801 114.317 37.075L104.509 20.0857L94.6997 37.0751C92.9648 40.0801 95.1335 43.8365 98.6035 43.8365Z" fill="white"/>
<path d="M154.02 2.25381C155.755 -0.751266 160.093 -0.751271 161.828 2.2538L181.932 37.0751C183.667 40.0802 181.498 43.8365 178.028 43.8365H137.82C134.35 43.8365 132.181 40.0802 133.916 37.0751L154.02 2.25381Z" fill="#4472C4"/>
</svg>
